<svg width="649" height="173" viewBox="0 0 649 173" fill="none" xmlns="http://www.w3.org/2000/svg">
  <path d="M242.968 37.8486C255.355 37.8486 265.538 42.7012 272.671 52.0137C272.571 49.8174 272.543 47.5916 272.543 45.4141V45.1582C272.543 41.8445 275.229 39.1582 278.543 39.1582H286.198C289.512 39.1582 292.198 41.8445 292.198 45.1582V138.636C292.198 148.811 287.888 157.017 279.948 162.604C272.094 168.132 260.84 171 247.014 171C235.416 171 225.698 168.921 218.571 164.923C211.391 160.894 206.825 154.89 205.805 147.25L205.789 147.105C205.672 145.619 206.848 144.329 208.359 144.329H222.408C223.641 144.329 224.783 144.976 225.418 146.032L225.713 146.498C228.855 151.251 235.02 153.904 246.838 153.904C256.155 153.904 262.553 152.398 266.587 149.562C270.469 146.833 272.455 142.656 272.455 136.426C272.455 131.841 272.566 127.413 272.738 123.812C265.737 133.082 255.606 137.935 243.144 137.935C231.717 137.935 221.877 133.735 214.925 125.534C208.003 117.369 204.115 105.443 204.115 90.2646V84.6992C204.115 69.5551 208.05 57.8242 214.984 49.8506C221.945 41.8472 231.739 37.8486 242.968 37.8486ZM141.998 37.8486C156.465 37.8487 167.814 41.7755 175.53 49.7861C183.234 57.7838 187.007 69.5337 187.007 84.5361V91.165C187.007 106.168 183.233 117.938 175.508 125.956C167.77 133.987 156.376 137.935 141.822 137.935C127.268 137.935 115.874 133.987 108.136 125.956C100.41 117.938 96.6377 106.167 96.6377 91.165V84.5361C96.6377 69.5307 100.434 57.778 108.196 49.7803C115.968 41.7724 127.405 37.8486 141.998 37.8486ZM466.854 39.1582C470.167 39.1582 472.854 41.8445 472.854 45.1582V102.378C472.854 108.147 474.611 112.653 477.648 115.711C480.683 118.766 485.21 120.594 491.171 120.594C497.973 120.594 503.444 118.208 507.237 113.896C511.056 109.556 513.357 103.054 513.357 94.5205V45.1582C513.357 41.8445 516.044 39.1583 519.357 39.1582H527.013C530.326 39.1582 533.013 41.8445 533.013 45.1582V130.625C533.013 133.939 530.326 136.625 527.013 136.625H520.166C516.892 136.625 514.237 133.971 514.237 130.696C514.237 129.232 514.291 127.357 514.397 125.362C507.795 133.652 498.026 137.935 486.509 137.935C476.669 137.935 468.288 134.801 462.367 128.761C456.449 122.723 453.198 113.993 453.198 103.196V45.1582C453.198 41.8445 455.885 39.1582 459.198 39.1582H466.854ZM572.572 2C575.886 2 578.572 4.68629 578.572 8V39.8486C578.572 42.8024 578.48 47.0148 578.299 50.9902C585.606 42.332 595.676 37.8486 607.708 37.8486C618.849 37.8486 628.744 41.8469 635.832 49.8359C642.901 57.8036 647 69.5358 647 84.6992V90.2646C647 105.462 642.949 117.391 635.88 125.551C628.788 133.738 618.824 137.935 607.444 137.935C595.446 137.935 585.496 133.53 578.396 125.06C578.514 127.167 578.572 129.158 578.572 130.696C578.572 133.97 575.919 136.625 572.645 136.625H564.917C561.603 136.625 558.917 133.939 558.917 130.625V8C558.917 4.68633 561.603 2.00006 564.917 2H572.572ZM16.7109 6.91113C20.0246 6.91113 22.7109 9.59742 22.7109 12.9111V116.384C22.7109 117.488 23.6064 118.384 24.7109 118.384H77.0469C80.3604 118.384 83.0468 121.07 83.0469 124.384V130.625C83.0469 133.939 80.3605 136.625 77.0469 136.625H8C4.68629 136.625 2 133.939 2 130.625V12.9111C2 9.59742 4.68629 6.91113 8 6.91113H16.7109ZM334.572 6.91113C337.886 6.91113 340.572 9.59742 340.572 12.9111V59.502C340.573 60.6063 341.468 61.5019 342.572 61.502H403.703C404.808 61.502 405.703 60.6063 405.703 59.502V12.9111C405.703 9.59749 408.39 6.91125 411.703 6.91113H420.414C423.728 6.91113 426.414 9.59742 426.414 12.9111V130.625C426.414 133.939 423.728 136.625 420.414 136.625H411.703C408.39 136.625 405.703 133.939 405.703 130.625V81.7422C405.703 80.6378 404.808 79.7422 403.703 79.7422H342.572C341.468 79.7423 340.572 80.6378 340.572 81.7422V130.625C340.572 133.939 337.886 136.625 334.572 136.625H325.861C322.548 136.625 319.861 133.939 319.861 130.625V12.9111C319.861 9.59745 322.548 6.91117 325.861 6.91113H334.572ZM246.838 55.2705C238.759 55.2705 233.195 57.8034 229.575 62.4756C225.878 67.2481 223.947 74.5812 223.947 84.6992V90.2646C223.947 100.375 225.897 107.934 229.629 112.925C233.283 117.811 238.855 120.512 246.838 120.512C255.244 120.512 261.56 117.532 265.823 112.198C270.139 106.8 272.543 98.7495 272.543 88.3008V86.582C272.543 76.0083 270.116 68.2061 265.819 63.0771C261.57 58.005 255.259 55.2706 246.838 55.2705ZM603.662 55.2705C595.246 55.2705 589.102 58.0006 585.009 63.0518C580.857 68.1751 578.572 75.9813 578.572 86.582V88.3008C578.572 98.7759 580.834 106.831 585.004 112.225C589.112 117.538 595.261 120.512 603.662 120.512C611.968 120.512 617.671 118.11 621.378 113.433C625.165 108.654 627.169 101.137 627.169 90.2646V84.6992C627.169 74.1224 625.168 66.8183 621.394 62.1748C617.692 57.6212 611.984 55.2705 603.662 55.2705ZM141.998 55.5986C133.23 55.5986 126.972 58.0778 122.867 62.6924C118.724 67.3508 116.469 74.5239 116.469 84.5361V91.165C116.469 101.224 118.704 108.419 122.818 113.087C126.89 117.707 133.101 120.185 141.822 120.185C150.543 120.185 156.753 117.707 160.825 113.087C164.939 108.419 167.176 101.224 167.176 91.165V84.5361C167.176 74.52 164.94 67.3428 160.846 62.6836C156.793 58.0726 150.626 55.5987 141.998 55.5986Z" fill="#488bfc" stroke="#488bfc" stroke-width="4"/>
</svg>
